<svg height="512" viewBox="0 0 64 64" width="512" xmlns="http://www.w3.org/2000/svg"><g id="_12_Sleep" data-name="12 Sleep"><path d="m31 3a29 29 0 1 0 29 29 29.033 29.033 0 0 0 -29-29z" fill="#ffd93b"/><g fill="#3e4347"><path d="m44.832 18.834h3.658a.739.739 0 1 1 0 1.456h-5.059c-.725 0-1.419-.635-.875-1.35.123-.162 3.872-4.4 3.985-4.556h-2.775c-.446 0-.971.02-1.125-.466-.171-.539.334-.881.818-.881h4.286a1.931 1.931 0 0 1 .913.174c.447.245.355.88.12 1.2-.052.068-3.946 4.423-3.946 4.423z"/><path d="m50.092 7.141h2.608a.528.528 0 1 1 0 1.04h-3.609c-.518 0-1.014-.454-.625-.964.088-.115 2.765-3.14 2.847-3.254h-1.983c-.319 0-.694.014-.8-.333-.13-.386.235-.63.58-.63h3.062a1.379 1.379 0 0 1 .652.125c.319.175.254.628.085.857-.036.048-2.817 3.159-2.817 3.159z"/><path d="m57.043 11.248h3.911a.79.79 0 1 1 0 1.557h-5.41c-.776 0-1.518-.679-.936-1.444.132-.173 4.141-4.7 4.262-4.873h-2.97c-.477 0-1.039.021-1.2-.5-.183-.577.357-.942.875-.942h4.584a2.065 2.065 0 0 1 .976.186c.478.262.38.941.128 1.283-.055.076-4.22 4.733-4.22 4.733z"/><circle cx="31" cy="43" r="8"/></g><path d="m36.879 47.788c-1.289-6.226-10.47-6.226-11.759 0a1 1 0 0 0 .275.913 7.979 7.979 0 0 0 11.209 0 1 1 0 0 0 .275-.913z" fill="#e24b4b"/><path d="m42.9 28c-2.158 0-4.374-1.1-6.6-3.287a1 1 0 0 1 1.4-1.427q5.12 5.391 9.448.188a1 1 0 0 1 1.7 1.046 8.393 8.393 0 0 1 -5.948 3.48z" fill="#3e4347"/><path d="m21.1 28c2.158 0 4.374-1.1 6.6-3.287a1 1 0 0 0 -1.4-1.427q-5.12 5.391-9.448.188a1 1 0 0 0 -1.7 1.046 8.393 8.393 0 0 0 5.948 3.48z" fill="#3e4347"/></g></svg>