<svg id="Vegan_Pizza" enable-background="new 0 0 64 64" height="512" viewBox="0 0 64 64" width="512" xmlns="http://www.w3.org/2000/svg"><path d="m28.0074 1.0198c-.8864-.7787-2.0731-1.1381-3.2547-.9854-7.5789.975-14.5943 5.0345-19.2484 11.1357-.7153.9368-.9932 2.1331-.764 3.2825.2266 1.1312.929 2.1113 1.9282 2.6886l17.8334 10.3022c.5079.2935 1.0643.4402 1.6216.4402.5565 0 1.113-.1467 1.62-.4393 1.0157-.586 1.6216-1.6364 1.6216-2.8084v-20.6123c0-1.1503-.4948-2.245-1.3577-3.0038zm-1.1521 24.8844c-.2098.1203-.4378.179-.6668.1898-.2736.0126-.5488-.0461-.7977-.1907l-15.6414-9.0359c.2637-1.7252 1.061-3.2917 2.3284-4.5583 1.3777-1.3882 3.2286-2.2407 5.2106-2.3995 2.1321-.171 4.1888-1.0227 5.7913-2.3978 1.2719-1.0904 2.8467-1.765 4.5074-1.9429v19.067c0 .5295-.2734 1.0036-.7318 1.2683zm-20.3709-11.8006c-.1302-.6485.0278-1.3239.4332-1.8552 4.4327-5.8105 10.8466-9.5218 18.0626-10.4498.1033-.0139.2057-.02.3082-.02.5695 0 1.1191.2023 1.5444.5765.425.3742.6712.8771.7295 1.4302-2.0773.1886-4.0524 1.0159-5.6406 2.3775-1.3187 1.132-3.0151 1.8335-4.7756 1.9741-2.4056.1936-4.6533 1.231-6.3279 2.9178-1.3723 1.3708-2.2822 3.0387-2.6917 4.8752l-.569-.3287c-.5643-.3256-.9454-.8578-1.0731-1.4976zm10.0574 4.2287c-.0347 0-.0695 0-.1042-.0009-1.2284-.026-2.4664-.5018-3.4856-1.3395-.9636-.7926-1.5297-1.7328-1.5132-2.515.0313-1.4819 2.3336-3.733 5.1559-3.6471 1.2276.026 2.4655.5035 3.4847 1.3439.9636.7935 1.5288 1.7345 1.5123 2.5167-.0156.7813-.6207 1.6963-1.6165 2.4482-1.0243.7718-2.2388 1.1937-3.4334 1.1937zm-3.3241-3.8172c.0599.4271 1.356 1.9985 3.2573 2.0384 1.8674.0738 3.2833-1.5019 3.3397-1.9108-.0391-.3915-1.3404-1.995-3.2581-2.0349-1.8822-.0469-3.2608 1.481-3.3389 1.9073zm10.7033 9.2587c-2.0427 0-3.7052-1.6625-3.7052-3.7052s1.6625-3.7052 3.7052-3.7052 3.7052 1.6625 3.7052 3.7052-1.6624 3.7052-3.7052 3.7052zm0-5.6325c-1.0626 0-1.9273.8647-1.9273 1.9273s.8647 1.9273 1.9273 1.9273 1.9273-.8647 1.9273-1.9273-.8647-1.9273-1.9273-1.9273zm1.2484 34.8281c-2.0427 0-3.7052-1.6616-3.7052-3.7052s1.6625-3.7052 3.7052-3.7052 3.7044 1.6616 3.7044 3.7052-1.6617 3.7052-3.7044 3.7052zm0-5.6325c-1.0626 0-1.9273.8647-1.9273 1.9273s.8647 1.9273 1.9273 1.9273 1.9264-.8647 1.9264-1.9273-.8638-1.9273-1.9264-1.9273zm-9.3733-11.2528c-2.0427 0-3.7052-1.6616-3.7052-3.7052 0-2.0427 1.6625-3.7052 3.7052-3.7052s3.7044 1.6625 3.7044 3.7052c-.0001 2.0435-1.6617 3.7052-3.7044 3.7052zm0-5.6325c-1.0626 0-1.9273.8647-1.9273 1.9273s.8647 1.9273 1.9273 1.9273 1.9264-.8647 1.9264-1.9273c0-1.0627-.8638-1.9273-1.9264-1.9273zm20.6687 22.9831c-.5487 0-1.2362-.0955-1.7224-.4914-.6598-.5365-.8534-1.5488-.9098-2.1044-.1545-1.5158.2969-3.0871 1.2067-4.2035 1.7675-2.1703 4.9658-2.4985 6.1187-1.5627 1.1477.9376 1.4672 4.1341-.3038 6.3044-.9133 1.1182-2.3613 1.8787-3.8771 2.0315-.1442.014-.3196.0261-.5123.0261zm-.599-1.8699c.3698.217 2.41.1615 3.6097-1.3109 1.2137-1.4863.8386-3.5142.5504-3.8111-.3264-.2066-2.3943-.1702-3.608 1.3161-1.2032 1.474-.8404 3.4846-.5521 3.8059zm.6094-25.5017c-.1198 0-.2344-.0113-.342-.033-.7657-.158-1.5566-.9194-2.1139-2.0349-.5903-1.1807-.7787-2.4924-.5304-3.6957.2483-1.2024.9411-2.3336 1.9498-3.1835.9567-.8048 1.9811-1.1859 2.7485-1.0314.7657.158 1.5557.9185 2.1165 2.0341.5921 1.1815.7813 2.4942.533 3.6974-.5243 2.542-2.8666 4.247-4.3615 4.247zm1.3387-8.236c-.4514 0-2.2033.9879-2.5836 2.8319-.3872 1.8787.8803 3.5038 1.2727 3.6323.4584.0729 2.2051-.9576 2.594-2.8345.382-1.8613-.8664-3.476-1.271-3.6297-.0034 0-.0069 0-.0121 0zm-2.1079-11.424c-1.1668-.1493-2.3518.2084-3.233.9845-.8655.7614-1.3613 1.8578-1.3613 3.0098l-.0017 23.1426-20.0349-11.571c-.9966-.5773-2.1955-.6945-3.2833-.3281-1.1138.375-2.015 1.2171-2.4733 2.3101-1.8022 4.2955-2.5202 8.8585-2.1339 13.5621 1.2276 14.8885 13.8668 26.4869 28.8188 26.4869h.1945c15.8358-.106 28.719-13.0777 28.719-28.9161 0-14.511-10.8379-26.8412-25.2109-28.6808zm-2.816 5.5369c1.66.18 3.24.85 4.51 1.94 1.6 1.38 3.65 2.23 5.77 2.4 1.98.16 3.84 1.01 5.23 2.4 1.27 1.27 2.0699 2.84 2.33 4.56l-2.3196 1.3406c-.6553-1.0465-1.8096-1.7496-3.1322-1.7496-2.0436 0-3.7052 1.6625-3.7052 3.7053 0 .6286.1721 1.212.4495 1.7311l-9.1325 5.2726zm4.7589 24.5c1.0626 0 1.9273.8646 1.9273 1.9272s-.8647 1.9255-1.9273 1.9255-1.9272-.8629-1.9272-1.9255.8647-1.9272 1.9272-1.9272zm0-1.7779c-1.0393 0-1.9766.4327-2.65 1.1239l-1.2189-.706 9.4506-5.4604c.5872.3909 1.2905.621 2.0475.621 2.0419 0 3.7035-1.6616 3.7035-3.7043 0-.0762-.0179-.1475-.0225-.2225l2.0209-1.1638c.34 1.67 1.1 3.22 2.22 4.54 1.29 1.5 2 3.42 2 5.39 0 1.98-.71 3.89-2 5.4-1.11 1.29-1.87 2.87-2.22 4.54l-9.7816-5.6489c.0913-.3214.1558-.6536.1558-1.0038 0-2.0436-1.6616-3.7052-3.7053-3.7052zm5.702-8.1258c0-1.0626.8647-1.9273 1.9272-1.9273 1.0626 0 1.9255.8647 1.9255 1.9273s-.8629 1.9264-1.9255 1.9264c-1.0625 0-1.9272-.8639-1.9272-1.9264zm-10.4609 10.0837 1.2213.7048c-.0984.3329-.1676.678-.1676 1.0424 0 2.0419 1.6616 3.7035 3.7052 3.7035 1.0529 0 1.999-.4459 2.6741-1.1527l10.407 6.012c-.26 1.72-1.06 3.29-2.33 4.55-1.39 1.4-3.25 2.25-5.23 2.41-2.12.17-4.17 1.02-5.77 2.39-1.27 1.1-2.85 1.77-4.51 1.95zm-8.607 4.89c-.1007.3993-1.6234 1.7762-3.5316 1.5279-1.8839-.25-2.9986-1.955-3.0107-2.3856.1233-.415 1.6417-1.7797 3.5298-1.5262 1.9013.2517 3.0169 1.9897 3.0125 2.3839zm-5.9266 2.4805c.6732.4191 1.4054.7101 2.1615.8114.2318.0295.4627.0451.691.0451 2.4976 0 4.6567-1.7502 4.8347-3.0941.0707-.5318-.148-1.2054-.5782-1.866l5.6446-3.2669v21.61c-1.66-.18-3.24-.86-4.51-1.95-1.64-1.39-3.64-2.22-5.77-2.39-1.99-.16-3.85-1.01-5.23-2.41-1.27-1.26-2.06-2.83-2.33-4.55zm11.8625-8.9099-5.9913 3.46c-.7432-.5863-1.674-1.0383-2.7234-1.1786-2.7859-.3525-5.3322 1.5852-5.5266 3.0558-.0912.6837.2748 1.5377.9558 2.3445l-3.9134 2.2577c-.35-1.67-1.11-3.25-2.22-4.54-1.29-1.5-2-3.42-2-5.4 0-1.97.71-3.89 2-5.4 1.12-1.31 1.88-2.86 2.22-4.53zm1.9668 27.1414c-.0608 0-.1207 0-.1823 0-14.0317 0-25.8949-10.8831-27.0461-24.8549-.3637-4.4162.3099-8.6987 2.0002-12.7286.2613-.6225.7717-1.1008 1.4011-1.3126.2361-.0799.4775-.119.7171-.119.3837 0 .7631.1016 1.1104.3021l1.1683.6749c-.2077 1.6023-.8463 3.1039-1.9045 4.3461-1.57 1.83-2.43 4.15-2.43 6.55s.86 4.73 2.43 6.5601c1.13 1.3199 1.83 3.0099 1.98 4.81 0 .02 0 .05.01.0699 0 .05.01.11.02.16.23 2.31 1.22 4.4 2.88 6.06 1.68 1.69 3.94 2.73 6.35 2.92 1.76.14 3.4.83 4.76 1.97 1.82 1.56 4.14 2.42 6.55 2.42s4.74-.86 6.56-2.42c1.32-1.13 3.01-1.83 4.75-1.97 2.4-.19 4.66-1.23 6.35-2.92 1.6801-1.67 2.71-3.88 2.91-6.22 0-.04 0-.08-.01-.12h.02c.14-1.75.84-3.44 1.97-4.7599 1.57-1.83 2.43-4.16 2.43-6.5601 0-2.4-.86-4.72-2.43-6.55-1.15-1.35-1.83-3-1.98-4.81 0-.02 0-.04-.01-.06 0-.01.01-.01.01-.01-.2-2.37-1.21-4.52-2.91-6.22-1.69-1.7-3.95-2.73-6.35-2.92-1.74-.14-3.43-.84-4.75-1.98-1.5883-1.3615-3.5652-2.189-5.6446-2.3778.0598-.5523.3066-1.0551.7323-1.4302.4974-.4367 1.1607-.6415 1.8326-.5547 13.4874 1.7258 23.6586 13.2982 23.6586 26.9167.0001 14.8642-12.0914 27.0391-26.9531 27.138zm16.4695-20.6322c-.0191 0-.0365 0-.0556 0-1.4793-.0573-3.6583-2.4186-3.5524-5.2193.0469-1.2258.5452-2.4551 1.4012-3.4604.8074-.9497 1.804-1.4958 2.5384-1.4689.7813.0295 1.6877.6494 2.4238 1.6573.7796 1.0687 1.1824 2.3327 1.1355 3.5602-.1058 2.7625-2.4081 4.9311-3.8909 4.9311zm.2639-8.3715c-.4271.0521-2.021 1.3204-2.094 3.2217-.0747 1.9151 1.4446 3.3094 1.8526 3.3736.3907-.033 2.0176-1.3074 2.0905-3.2243.073-1.8995-1.4237-3.2859-1.8491-3.371z"/></svg>